<svg xmlns="http://www.w3.org/2000/svg" width="224.24" height="261.708" viewBox="0 0 224.24 261.708">
  <g id="Group_4" data-name="Group 4" transform="translate(-31.827 -30.845)">
    <path id="Path_14" data-name="Path 14" d="M239.387,85.016h0a38.012,38.012,0,0,0-5.64-8.63,66.354,66.354,0,0,0-9.161-10.831h0a47.05,47.05,0,0,0-8.116-7.665h0c-3.157-3.333-7.079-5.638-10.882-8.1a39.836,39.836,0,0,0-9.152-5.645h0a37.431,37.431,0,0,0-8.628-4.117v0a42.683,42.683,0,0,0-9.226-3.514,30.564,30.564,0,0,0-7.595-2.133,22.166,22.166,0,0,0-7.141-1.518c-3.014-1-6.161-1.108-9.282-1.412h0c-.512-.2-1.214.084-1.533-.6H134.121c-1.588.91-3.388.765-5.107,1.009a97.321,97.321,0,0,0-24.03,6.123h0a30.039,30.039,0,0,0-6.632,2.676h0a42.305,42.305,0,0,0-8.712,4.419h0a67.765,67.765,0,0,0-11.722,7.387A69.919,69.919,0,0,0,68.2,60.5h0a63.833,63.833,0,0,0-9.726,10.175,22.833,22.833,0,0,0-4.091,5.095h0a30.985,30.985,0,0,0-4.6,6.647h0A42.965,42.965,0,0,0,43.66,93.164a76.6,76.6,0,0,0-6.772,16.821c-.627,2.006-1.39,3.977-1.866,6.017a113.983,113.983,0,0,0-2.57,38.433,89.162,89.162,0,0,0,4.462,21.081h0a69.551,69.551,0,0,0,6.193,15.82h0a54.059,54.059,0,0,0,6.639,11.857,54.005,54.005,0,0,0,7.211,10.083,74.275,74.275,0,0,0,10.694,11.367,51.705,51.705,0,0,0,9.731,8.111,37.539,37.539,0,0,0,7.636,5.153,37.556,37.556,0,0,0,7.713,4.433h0l6.132,3h0a34.672,34.672,0,0,0,7.136,2.73h0a35.825,35.825,0,0,0,7.419,2.541,3.718,3.718,0,0,1,2.558,1.861c3.2,5.894,6.437,11.77,9.762,17.594,1.1,1.924.241,2.006-1.373,2-6.287-.024-32.673.034-38.96.06H78.763c-2.73.056-5.5-.565-8.177.449a9.978,9.978,0,0,0,0,19.375h0c2.679,1.018,5.447.4,8.177.454h6.644c9.878,0,39.857,0,49.735,0l5.112,0h70.631c3.1-.063,6.227.56,9.292-.386a9.945,9.945,0,0,0,0-19.505h0c-3.065-.946-6.2-.326-9.294-.386H162.228c-.558-.128-1.216-.181-.792-1.052s.847-1.745,1.272-2.618c2.751-4.631,5.471-9.28,7.771-14.159,1.393-2.4,2.935-4.733,4.151-7.221,2.594-5.309.907-10.653-4.074-13.462h0a8.575,8.575,0,0,0-8.881-.5h0c-4.124,1.429-5.563,5.092-7.173,8.613a78.227,78.227,0,0,0-5.548,9.919h0v0c-1.289,2.23-2.541,4.482-3.886,6.675-.43.7-.418,1.916-1.721,1.822h0a15.087,15.087,0,0,0-2.527-4.581v0a71.3,71.3,0,0,0-5.633-10.194v0a60.078,60.078,0,0,0-4.836-8.881,8.731,8.731,0,0,0-5.447-3.9,148.367,148.367,0,0,1-17.348-5.507q-3.761-1.828-7.525-3.661c-1.938-1.882-4.762-2.312-6.75-4.112h0l-6.828-4.989h0q-4.236-3.9-8.473-7.8h0c-3.053-3.939-6.7-7.4-9.41-11.616h0a119.473,119.473,0,0,1-10.131-18.914h0c-.171-.565-.3-1.144-.519-1.689a82.741,82.741,0,0,1-5.611-28.881,100.387,100.387,0,0,1,3.538-28.184h0l3.678-10.744h0a149.778,149.778,0,0,1,10.124-17.4v0A17.47,17.47,0,0,1,70.9,87.215c2.7-3.106,5.44-6.181,8.165-9.267h0l11.514-9.832,8.905-5.51,6.05-3.067h0a102.456,102.456,0,0,1,29.123-7.856l6.106-.449,4.088-.017,4.088.055h0a20.663,20.663,0,0,0,5.621.5h0l8.14,1.421h0l7.182,1.694h0l8.686,3.07h0q4.341,2.06,8.681,4.125l8.2,5.03h0q4.6,3.588,9.19,7.175Q210.484,80,215.849,86.151q3.812,5.633,7.626,11.266v0a130.9,130.9,0,0,1,8.71,20.828h0c.084.5.135,1.009.261,1.5a92.174,92.174,0,0,1,.8,42.691,100.842,100.842,0,0,1-10.129,26.321h0q-3.855,5.655-7.708,11.309h0q-4.894,5.539-10.122,10.769a10.057,10.057,0,0,0-1,12.888,9.931,9.931,0,0,0,12.166,3.388c3.55-1.385,5.7-4.395,8.179-7.028h0a42.673,42.673,0,0,0,6-6.526c3.405-4.289,6.849-8.568,9.224-13.563h0Q272.558,142.371,239.387,85.016ZM140.763,31.359h0Z" transform="translate(0 0)" fill="#fff"/>
    <path id="Path_15" data-name="Path 15" d="M109.386,169.653h0c2.734.729,5.452.058,8.177-.089h0a18.354,18.354,0,0,0,6.171-.934h0a23.126,23.126,0,0,0,7.655-2.051h0a26.378,26.378,0,0,0,8.213-3.555h0a30.956,30.956,0,0,0,8.109-5.155,39.915,39.915,0,0,0,8.708-8.167,34.857,34.857,0,0,0,6.021-8.208c.439-.821.854-1.651,1.318-2.457,6.306-10.95,8.013-22.758,6.593-35.158a55.9,55.9,0,0,0-7.979-22.618h0a37.365,37.365,0,0,0-6.055-8.179h0a37.974,37.974,0,0,0-9.077-8.35,29.33,29.33,0,0,0-8.179-5.114h0a28.236,28.236,0,0,0-8.189-3.458,24.118,24.118,0,0,0-7.689-1.993,24.651,24.651,0,0,0-5.626-.854v0h0a39.254,39.254,0,0,0-7.66-.135,20.777,20.777,0,0,0-7.252.893l-.031.01c-10.923,1.453-20.275,6.243-28.488,13.443a30.808,30.808,0,0,0-6.685,6.948,34.416,34.416,0,0,0-6.685,10.172,14.8,14.8,0,0,0-.948,1.482A57.506,57.506,0,0,0,54.288,117.1a51.171,51.171,0,0,0,7.059,22.377h0a36.222,36.222,0,0,0,6.159,9.113v0h0a35.783,35.783,0,0,0,6.61,6.745h0a20.408,20.408,0,0,0,4.887,4c7.486,5.169,15.624,8.749,24.762,9.767h0A15.786,15.786,0,0,0,109.386,169.653Zm-7.974-22.539A36.624,36.624,0,0,1,82.9,134.227a56.252,56.252,0,0,1-5.669-9.948c-.314-.64-.475-1.458-1.1-1.815a3.065,3.065,0,0,0,.06-2.3,41.961,41.961,0,0,1-.15-16.382,2.71,2.71,0,0,0-.374-2.6,1.724,1.724,0,0,0,.729-.823A29.554,29.554,0,0,0,77.737,97.6a37.783,37.783,0,0,1,23.34-21.721A6.213,6.213,0,0,0,103.64,74.6a7.7,7.7,0,0,0,6.176-1.086,2.852,2.852,0,0,0,.171.249,10.124,10.124,0,0,0,7.578-.116c1.385,1.726,3.135,1.634,5,.98a1.1,1.1,0,0,0,.109-.1c1.641,2.409,4.269,2.708,6.9,3.007a3.641,3.641,0,0,0,1.4,1.443,62.652,62.652,0,0,1,6.19,4.46,1.3,1.3,0,0,0,.939.422,3.954,3.954,0,0,0,1.127,1.73,35.331,35.331,0,0,1,6.359,8.568,3.005,3.005,0,0,0,.951,1.3,14.648,14.648,0,0,0,.907,3.335,37.681,37.681,0,0,1-.319,26.412,8.178,8.178,0,0,0-.582,2.068,1.732,1.732,0,0,0-.671.833,51.942,51.942,0,0,1-6.564,9.5,4.368,4.368,0,0,0-.8,1.463c-3.026,1.24-5.336,3.536-7.856,5.517a.917.917,0,0,0-.241.309c-2.24-.1-4.014,1.373-6.05,1.96a2.49,2.49,0,0,0-1.549,1.171,8.244,8.244,0,0,0-6.224,1.035c-.077-.048-.15-.1-.232-.142a15.751,15.751,0,0,0-6.7.348,5.93,5.93,0,0,0-5.544-.714C103.551,147.611,102.423,147.426,101.412,147.114Z" transform="translate(31.379 31.395)" fill="#fff"/>
  </g>
</svg>
